HIERARCHY
ROOT Hips
{
 OFFSET 0.000000 0.000000 0.000000
 CHANNELS 6 Xposition Yposition Zposition Yrotation Xrotation Zrotation
 JOINT Chest
 {
  OFFSET 0.000000 10.932484 0.001155
  CHANNELS 3 Yrotation Xrotation Zrotation
  JOINT Chest2
  {
   OFFSET 0.000000 12.093805 -0.002099
   CHANNELS 3 Yrotation Xrotation Zrotation
   JOINT Chest3
   {
    OFFSET 0.000000 10.927800 0.000000
    CHANNELS 3 Yrotation Xrotation Zrotation
    JOINT Chest4
    {
     OFFSET 0.000000 10.927800 0.000000
     CHANNELS 3 Yrotation Xrotation Zrotation
     JOINT Neck
     {
      OFFSET 0.000000 15.355144 0.000000
      CHANNELS 3 Yrotation Xrotation Zrotation
      JOINT Head
      {
       OFFSET 0.000000 10.170446 -0.004991
       CHANNELS 3 Yrotation Xrotation Zrotation
       End Site
       {
        OFFSET 0.000000 19.463738 -0.002607
       }
      }
     }
     JOINT RightCollar
     {
      OFFSET -3.333126 8.566406 0.000000
      CHANNELS 3 Yrotation Xrotation Zrotation
      JOINT RightShoulder
      {
       OFFSET -15.529370 0.000000 0.000000
       CHANNELS 3 Yrotation Xrotation Zrotation
       JOINT RightElbow
       {
        OFFSET 0.000000 -33.145213 0.000000
        CHANNELS 3 Yrotation Xrotation Zrotation
        JOINT RightWrist
        {
         OFFSET 0.000000 -27.120720 -0.000000
         CHANNELS 3 Yrotation Xrotation Zrotation
         End Site
         {
          OFFSET 0.000000 -20.306483 0.000000
         }
        }
       }
      }
     }
     JOINT LeftCollar
     {
      OFFSET 3.333126 8.566406 0.000000
      CHANNELS 3 Yrotation Xrotation Zrotation
      JOINT LeftShoulder
      {
       OFFSET 15.529370 0.000000 0.000000
       CHANNELS 3 Yrotation Xrotation Zrotation
       JOINT LeftElbow
       {
        OFFSET 0.000000 -33.145213 0.000000
        CHANNELS 3 Yrotation Xrotation Zrotation
        JOINT LeftWrist
        {
         OFFSET 0.000000 -27.120720 -0.000000
         CHANNELS 3 Yrotation Xrotation Zrotation
         End Site
         {
          OFFSET 0.000000 -20.306483 0.000000
         }
        }
       }
      }
     }
    }
   }
  }
 }
 JOINT RightHip
 {
  OFFSET -8.869179 -0.005661 -0.000578
  CHANNELS 3 Yrotation Xrotation Zrotation
  JOINT RightKnee
  {
   OFFSET 0.000000 -45.835245 0.000547
   CHANNELS 3 Yrotation Xrotation Zrotation
   JOINT RightAnkle
   {
    OFFSET 0.000000 -44.890236 0.000924
    CHANNELS 3 Yrotation Xrotation Zrotation
    JOINT RightToe
    {
     OFFSET 0.000000 -8.082775 18.351045
     CHANNELS 3 Yrotation Xrotation Zrotation
     End Site
     {
      OFFSET 0.000000 -1.681997 7.345339
     }
    }
   }
  }
 }
 JOINT LeftHip
 {
  OFFSET 8.869179 -0.005661 -0.000578
  CHANNELS 3 Yrotation Xrotation Zrotation
  JOINT LeftKnee
  {
   OFFSET 0.000000 -45.835245 0.000547
   CHANNELS 3 Yrotation Xrotation Zrotation
   JOINT LeftAnkle
   {
    OFFSET 0.000000 -44.890236 0.000924
    CHANNELS 3 Yrotation Xrotation Zrotation
    JOINT LeftToe
    {
     OFFSET 0.000000 -8.082775 18.351045
     CHANNELS 3 Yrotation Xrotation Zrotation
     End Site
     {
      OFFSET 0.000000 -1.681997 7.345339
     }
    }
   }
  }
 }
}
MOTION
Frames: 16
Frame Time: 0.008333
290.163771 53.248171 183.892598 -30.261569 -31.257431 -1.623116 0.495003 17.515139 -0.341378 0.242900 7.792153 -0.431258 0.242900 7.792153 -0.431258 0.187422 5.843948 -0.326057 -4.552947 12.920928 -0.351198 -8.502979 -12.076276 1.206957 -4.771875 0.404301 4.896089 22.352185 -1.274450 -34.870468 29.204316 -63.759827 9.269210 44.827995 -23.984124 -60.874672 1.594170 -1.019715 -4.432798 -27.428375 -2.930796 47.739974 -8.150091 -57.593474 -25.264627 -44.578029 -51.721873 54.972181 -26.283736 -55.510331 15.471915 -158.124978 74.416298 -165.115926 2.574538 -15.710994 -5.411271 -0.141470 0.853508 -0.047373 20.415178 -58.381879 -6.140549 174.250434 67.850772 178.206767 5.495043 -22.734589 6.474364 -0.012306 -0.270261 -0.001862
290.160659 53.247690 183.892670 -30.251220 -31.266212 -1.631552 0.499722 17.509934 -0.345050 0.245111 7.790247 -0.432211 0.245111 7.790247 -0.432211 0.189088 5.842517 -0.326798 -4.556007 12.926657 -0.354744 -8.507009 -12.065733 1.201073 -4.766195 0.395413 4.896374 22.347056 -1.264164 -34.878902 29.157578 -63.748189 9.336631 44.807575 -23.973959 -60.874120 1.603951 -1.019065 -4.437284 -27.434589 -2.938275 47.730259 -8.130611 -57.563797 -25.311207 -44.615634 -51.712674 54.973315 -26.271873 -55.502767 15.461501 -158.108804 74.411646 -165.095571 2.596040 -15.710587 -5.416778 -0.143564 0.853906 -0.045079 20.402922 -58.374140 -6.130452 174.255032 67.849691 178.214074 5.506886 -22.737751 6.470432 -0.012847 -0.268526 -0.002549
290.162520 53.247940 183.897852 -30.236217 -31.278577 -1.639775 0.495483 17.511130 -0.355570 0.246076 7.788407 -0.433605 0.246076 7.788407 -0.433605 0.189828 5.841136 -0.327854 -4.555861 12.934609 -0.356954 -8.505380 -12.051151 1.196255 -4.756594 0.396194 4.898084 22.351923 -1.257956 -34.885389 29.119862 -63.736997 9.390935 44.782236 -23.955870 -60.870774 1.614128 -1.021157 -4.435222 -27.442280 -2.945412 47.713335 -8.112575 -57.552118 -25.315768 -44.598646 -51.721015 54.904815 -26.257867 -55.491592 15.438039 -158.117884 74.407300 -165.104251 2.601560 -15.719591 -5.410938 -0.148580 0.858219 -0.047246 20.388986 -58.364048 -6.116507 174.270567 67.847374 178.231299 5.414576 -22.730202 6.513310 -0.015594 -0.267682 -0.006276
290.163674 53.247903 183.902241 -30.224754 -31.286431 -1.656500 0.503216 17.506410 -0.353571 0.247842 7.786653 -0.434164 0.247842 7.786653 -0.434164 0.191157 5.839819 -0.328295 -4.557713 12.940890 -0.358650 -8.507848 -12.039522 1.193348 -4.754466 0.391953 4.895314 22.349498 -1.253624 -34.887402 29.070974 -63.726457 9.453289 44.768753 -23.944512 -60.870315 1.620522 -1.023572 -4.437577 -27.446850 -2.955484 47.696719 -8.084440 -57.509617 -25.371602 -44.641408 -51.710292 54.906812 -26.259622 -55.478045 15.440799 -158.083101 74.404465 -165.069675 2.598368 -15.724706 -5.405121 -0.146611 0.860234 -0.046492 20.364433 -58.359784 -6.089754 174.286386 67.844342 178.246874 5.367674 -22.731625 6.537111 -0.016341 -0.264881 -0.007248
290.162194 53.244941 183.901102 -30.233341 -31.273099 -1.684300 0.535913 17.479201 -0.329345 0.251023 7.784571 -0.435139 0.251023 7.784571 -0.435139 0.193550 5.838254 -0.329065 -4.562469 12.949184 -0.359578 -8.516032 -12.023947 1.192938 -4.750026 0.390617 4.891646 22.339718 -1.241629 -34.879736 29.037824 -63.709107 9.497682 44.751908 -23.937659 -60.878733 1.621440 -1.020369 -4.441267 -27.463062 -2.959028 47.691266 -8.061311 -57.492620 -25.387996 -44.607735 -51.708298 54.848899 -26.288038 -55.475118 15.493505 -158.020228 74.398565 -165.002269 2.600461 -15.746905 -5.396336 -0.164701 0.877978 -0.054042 20.342823 -58.388465 -6.049660 174.290595 67.833177 178.252598 5.409235 -22.741408 6.523860 -0.018223 -0.264648 -0.006425
290.165216 53.244524 183.905566 -30.220046 -31.280557 -1.698191 0.543875 17.471948 -0.330870 0.253614 7.782624 -0.436334 0.253614 7.782624 -0.436334 0.195504 5.836792 -0.329993 -4.566146 12.956329 -0.359378 -8.522693 -12.010482 1.194308 -4.749519 0.381854 4.894064 22.336342 -1.230394 -34.873153 29.006754 -63.689887 9.543448 44.742900 -23.923220 -60.882081 1.623090 -1.019862 -4.444255 -27.460438 -2.969030 47.687159 -8.030747 -57.452624 -25.456145 -44.661346 -51.700343 54.864358 -26.285426 -55.467145 15.484341 -158.025952 74.396743 -165.002175 2.581242 -15.749826 -5.390716 -0.165359 0.877089 -0.054481 20.326999 -58.381373 -6.038272 174.297378 67.831206 178.258499 5.403984 -22.747775 6.531749 -0.018039 -0.261741 -0.006149
290.168839 53.244035 183.909838 -30.203147 -31.286369 -1.714078 0.552392 17.465811 -0.334398 0.256840 7.781049 -0.437759 0.256840 7.781049 -0.437759 0.197937 5.835608 -0.331101 -4.571821 12.963643 -0.359996 -8.532800 -11.996650 1.194928 -4.751609 0.374433 4.901690 22.337181 -1.221538 -34.868208 28.975280 -63.671411 9.575682 44.731605 -23.918419 -60.865283 1.613491 -1.014947 -4.440524 -27.461865 -2.973236 47.683674 -8.015252 -57.442795 -25.466325 -44.640208 -51.688697 54.828512 -26.293149 -55.460712 15.479738 -158.001746 74.392329 -164.976941 2.585477 -15.749874 -5.389555 -0.168404 0.874915 -0.054609 20.302912 -58.378060 -6.021709 174.264271 67.827514 178.221011 5.391567 -22.753081 6.536856 -0.017919 -0.260936 -0.004082
290.170306 53.243053 183.912283 -30.189035 -31.294326 -1.731995 0.562399 17.456690 -0.334801 0.259772 7.778368 -0.439242 0.259772 7.778368 -0.439242 0.200149 5.833595 -0.332248 -4.575775 12.974369 -0.361791 -8.538968 -11.976668 1.192372 -4.756919 0.372608 4.907398 22.342888 -1.213988 -34.860118 28.946963 -63.655996 9.606824 44.718236 -23.906323 -60.854365 1.611062 -1.009134 -4.437066 -27.460763 -2.978538 47.681434 -7.995046 -57.400873 -25.526174 -44.695695 -51.686497 54.864579 -26.297603 -55.450404 15.484515 -157.993164 74.390377 -164.963112 2.556995 -15.749370 -5.381372 -0.167743 0.871780 -0.055319 20.284130 -58.373374 -6.005673 174.256787 67.823863 178.211815 5.422202 -22.762271 6.531083 -0.016198 -0.259881 -0.003670
290.174281 53.243238 183.915345 -30.173016 -31.299973 -1.747147 0.568063 17.454058 -0.335439 0.262118 7.777713 -0.440202 0.262118 7.777713 -0.440202 0.201918 5.833101 -0.332997 -4.580370 12.979844 -0.364919 -8.546099 -11.966483 1.187923 -4.765682 0.366089 4.907007 22.352913 -1.209529 -34.851957 28.938281 -63.634010 9.623510 44.707769 -23.891082 -60.854135 1.617411 -1.011411 -4.439890 -27.472942 -2.982141 47.683151 -7.983896 -57.392261 -25.539862 -44.664812 -51.683247 54.832682 -26.300702 -55.443489 15.479797 -157.970272 74.388505 -164.938943 2.554744 -15.750217 -5.375817 -0.168895 0.872283 -0.056313 20.274165 -58.370428 -5.998096 174.252695 67.822461 178.206663 5.406407 -22.762321 6.546964 -0.017476 -0.260396 -0.004617
290.181096 53.243462 183.919151 -30.159116 -31.308353 -1.754993 0.568909 17.449727 -0.338803 0.262684 7.775637 -0.440639 0.262684 7.775637 -0.440639 0.202346 5.831544 -0.333330 -4.585258 12.986792 -0.374101 -8.551222 -11.953976 1.172013 -4.769564 0.364625 4.898995 22.361146 -1.207176 -34.842012 28.915667 -63.615968 9.649604 44.710381 -23.874489 -60.852549 1.628605 -1.005553 -4.448095 -27.486194 -2.989322 47.685304 -7.953258 -57.349483 -25.605212 -44.725985 -51.677504 54.878281 -26.295316 -55.441173 15.464227 -157.985443 74.387004 -164.952471 2.542241 -15.742895 -5.370058 -0.165284 0.866946 -0.056737 20.276574 -58.361155 -5.999641 174.249854 67.824693 178.204007 5.355940 -22.757509 6.574889 -0.018954 -0.260159 -0.003610
290.184365 53.244274 183.921554 -30.142161 -31.316925 -1.769762 0.574304 17.448603 -0.341102 0.265580 7.774200 -0.441964 0.265580 7.774200 -0.441964 0.204531 5.830463 -0.334359 -4.587833 12.990867 -0.379362 -8.553725 -11.946647 1.162798 -4.777879 0.364709 4.909373 22.374993 -1.195396 -34.841871 28.886348 -63.606309 9.674293 44.703601 -23.858917 -60.850588 1.645881 -1.004563 -4.446744 -27.520503 -2.988987 47.688748 -7.926198 -57.337744 -25.631832 -44.703253 -51.676416 54.848765 -26.290998 -55.430352 15.456707 -158.001772 74.389149 -164.965395 2.519864 -15.744113 -5.360593 -0.162809 0.867168 -0.056719 20.259970 -58.351348 -5.986767 174.240018 67.827088 178.191927 5.350501 -22.761401 6.581466 -0.016899 -0.258151 -0.001957
290.186263 53.244851 183.923076 -30.131146 -31.326262 -1.781562 0.578531 17.445677 -0.344817 0.267634 7.772389 -0.443060 0.267634 7.772389 -0.443060 0.206082 5.829103 -0.335206 -4.590194 12.995813 -0.385467 -8.555427 -11.937776 1.151835 -4.775981 0.361535 4.914860 22.373122 -1.189995 -34.837791 28.864668 -63.593066 9.699870 44.701299 -23.853226 -60.851830 1.659675 -1.006290 -4.448265 -27.541199 -2.990212 47.690272 -7.888312 -57.290139 -25.703736 -44.769616 -51.667951 54.893461 -26.285761 -55.422377 15.451732 -157.988517 74.386073 -164.953392 2.542897 -15.738110 -5.359971 -0.160584 0.864263 -0.056071 20.257515 -58.342369 -5.979520 174.238340 67.827421 178.196374 5.328697 -22.762999 6.593101 -0.016553 -0.256559 -0.001199
290.188196 53.244623 183.925569 -30.120109 -31.331713 -1.793700 0.580040 17.447956 -0.346811 0.268881 7.772048 -0.444105 0.268881 7.772048 -0.444105 0.207029 5.828846 -0.336004 -4.592245 12.997178 -0.391807 -8.556644 -11.935576 1.140555 -4.770612 0.353456 4.918622 22.368787 -1.181255 -34.835678 28.841234 -63.591704 9.723094 44.701150 -23.843922 -60.847483 1.671729 -1.011431 -4.455018 -27.562349 -2.995824 47.702786 -7.857107 -57.266183 -25.744091 -44.771084 -51.664950 54.888882 -26.283140 -55.416025 15.456328 -157.963905 74.382075 -164.929472 2.519089 -15.739498 -5.345728 -0.155132 0.863494 -0.055932 20.262710 -58.336982 -5.977921 174.244585 67.827052 178.209058 5.312508 -22.766730 6.605778 -0.016626 -0.254649 -0.000461
290.191126 53.246646 183.931505 -30.091847 -31.357246 -1.792993 0.560789 17.465717 -0.369296 0.269928 7.771501 -0.444876 0.269928 7.771501 -0.444876 0.207822 5.828435 -0.336595 -4.593356 12.999606 -0.396524 -8.556683 -11.931344 1.131894 -4.767367 0.342922 4.917122 22.367472 -1.173016 -34.828658 28.811137 -63.589224 9.756105 44.707687 -23.827665 -60.845760 1.681062 -1.016758 -4.458015 -27.574722 -3.002737 47.709630 -7.823964 -57.222633 -25.820132 -44.835397 -51.652205 54.938730 -26.263745 -55.403001 15.411146 -157.954834 74.378341 -164.921656 2.519859 -15.717328 -5.354552 -0.128232 0.843030 -0.044694 20.265582 -58.301997 -5.994224 174.250484 67.831919 178.217825 5.266346 -22.763762 6.630374 -0.016405 -0.254442 -0.000934
290.190292 53.243743 183.925510 -30.103320 -31.336449 -1.818282 0.592913 17.441047 -0.344334 0.271273 7.771776 -0.445238 0.271273 7.771776 -0.445238 0.208835 5.828640 -0.336883 -4.594539 13.000049 -0.400195 -8.557399 -11.930715 1.125386 -4.765111 0.335850 4.916184 22.357969 -1.165374 -34.828621 28.783104 -63.592426 9.781339 44.705992 -23.824235 -60.841582 1.682242 -1.026563 -4.454864 -27.588551 -3.005824 47.712799 -7.808892 -57.211087 -25.847654 -44.826615 -51.639460 54.928967 -26.296326 -55.412164 15.471005 -157.959205 74.379554 -164.920406 2.523205 -15.724793 -5.348010 -0.147142 0.855678 -0.052936 20.253661 -58.339166 -5.961952 174.246419 67.824844 178.213937 5.328176 -22.769105 6.610131 -0.017872 -0.255814 -0.000763
290.191682 53.244183 183.926381 -30.093237 -31.344765 -1.827141 0.596518 17.442592 -0.344814 0.272518 7.772241 -0.445035 0.272518 7.772241 -0.445035 0.209765 5.828988 -0.336747 -4.594599 12.998002 -0.405736 -8.555355 -11.934895 1.115052 -4.766718 0.333076 4.911738 22.350686 -1.163128 -34.820304 28.777518 -63.588495 9.788059 44.706835 -23.819518 -60.850446 1.689097 -1.040097 -4.460290 -27.607755 -2.998342 47.715786 -7.772726 -57.177738 -25.913548 -44.887095 -51.630390 54.979242 -26.296948 -55.403919 15.467600 -157.916957 74.375850 -164.878294 2.526815 -15.724342 -5.347722 -0.148446 0.855289 -0.051765 20.259667 -58.331433 -5.963660 174.233533 67.825664 178.207679 5.334509 -22.766816 6.609605 -0.018313 -0.258227 0.000733
